<svg xmlns="http://www.w3.org/2000/svg" xmlns:xlink="http://www.w3.org/1999/xlink" version="1.1" width="256" height="256" viewBox="0 0 256 256" xml:space="preserve">

<defs>
</defs>
<g style="stroke: none; stroke-width: 0; stroke-dasharray: none; stroke-linecap: butt; stroke-linejoin: miter; stroke-miterlimit: 10; fill: none; fill-rule: nonzero; opacity: 1;" transform="translate(1.4065934065934016 1.4065934065934016) scale(2.81 2.81)" >
	<path d="M 85.411 71.608 c -12.526 3.09 -25.051 3.09 -37.577 0 v -4.005 c 0 -1.89 1.532 -3.422 3.422 -3.422 h 30.732 c 1.89 0 3.422 1.532 3.422 3.422 V 71.608 z" style="stroke: none; stroke-width: 1; stroke-dasharray: none; stroke-linecap: butt; stroke-linejoin: miter; stroke-miterlimit: 10; fill: rgb(225,122,23); fill-rule: nonzero; opacity: 1;" transform=" matrix(1 0 0 1 0 0) " stroke-linecap="round" />
	<path d="M 88.363 79.036 h -43.49 c -0.904 0 -1.637 -0.733 -1.637 -1.637 v -4.153 c 0 -0.904 0.733 -1.637 1.637 -1.637 h 43.49 c 0.904 0 1.637 0.733 1.637 1.637 v 4.153 C 90 78.303 89.267 79.036 88.363 79.036 z" style="stroke: none; stroke-width: 1; stroke-dasharray: none; stroke-linecap: butt; stroke-linejoin: miter; stroke-miterlimit: 10; fill: rgb(90,81,107); fill-rule: nonzero; opacity: 1;" transform=" matrix(1 0 0 1 0 0) " stroke-linecap="round" />
	<path d="M 13.381 29.511 h 40.274 c 2.313 0 4.188 -1.875 4.188 -4.188 v -6.986 c 5.211 -1.616 10.906 -1.843 17.324 0 v 29.776 c -5.722 2.923 -11.498 2.871 -17.324 0 l 0 -6.986 c 0 -2.313 -1.875 -4.188 -4.188 -4.188 H 13.381 l 0.007 0.004 c -1.459 2.419 -4.298 3.911 -7.426 3.387 c -2.895 -0.485 -5.261 -2.777 -5.821 -5.658 c -0.897 -4.616 2.614 -8.656 7.069 -8.656 c 2.622 0 4.916 1.399 6.178 3.492" style="stroke: none; stroke-width: 1; stroke-dasharray: none; stroke-linecap: butt; stroke-linejoin: miter; stroke-miterlimit: 10; fill: rgb(225,122,23); fill-rule: nonzero; opacity: 1;" transform=" matrix(1 0 0 1 0 0) " stroke-linecap="round" />
	<path d="M 74.991 18.337 H 58.018 c -1.991 0 -3.604 -1.614 -3.604 -3.604 v -0.164 c 0 -1.991 1.614 -3.604 3.604 -3.604 h 16.973 c 1.991 0 3.604 1.614 3.604 3.604 v 0.164 C 78.596 16.723 76.982 18.337 74.991 18.337 z" style="stroke: none; stroke-width: 1; stroke-dasharray: none; stroke-linecap: butt; stroke-linejoin: miter; stroke-miterlimit: 10; fill: rgb(90,81,107); fill-rule: nonzero; opacity: 1;" transform=" matrix(1 0 0 1 0 0) " stroke-linecap="round" />
	<path d="M 74.991 55.485 H 58.018 c -1.991 0 -3.604 -1.614 -3.604 -3.604 v -0.164 c 0 -1.991 1.614 -3.604 3.604 -3.604 h 16.973 c 1.991 0 3.604 1.614 3.604 3.604 v 0.164 C 78.596 53.872 76.982 55.485 74.991 55.485 z" style="stroke: none; stroke-width: 1; stroke-dasharray: none; stroke-linecap: butt; stroke-linejoin: miter; stroke-miterlimit: 10; fill: rgb(90,81,107); fill-rule: nonzero; opacity: 1;" transform=" matrix(1 0 0 1 0 0) " stroke-linecap="round" />
</g>
</svg>